<?xml version="1.0" encoding="utf-8"?>
<!-- Generator: Adobe Illustrator 15.0.0, SVG Export Plug-In  -->
<!DOCTYPE svg PUBLIC "-//W3C//DTD SVG 1.1//EN" "http://www.w3.org/Graphics/SVG/1.1/DTD/svg11.dtd" [
	<!ENTITY ns_flows "http://ns.adobe.com/Flows/1.0/">
]>
<svg version="1.1"
	 xmlns="http://www.w3.org/2000/svg" xmlns:xlink="http://www.w3.org/1999/xlink" xmlns:a="http://ns.adobe.com/AdobeSVGViewerExtensions/3.0/"
	 x="0px" y="0px" width="374px" height="354px" viewBox="-7.009 -3.004 374 354"
	 overflow="visible" enable-background="new -7.009 -3.004 374 354" xml:space="preserve">
<defs>
</defs>
<path d="M360.705,48.815L275.014,0.26c-0.617-0.349-1.369-0.347-1.982,0.006L1.004,156.423c-0.619,0.355-1.002,1.014-1.004,1.729
	c0,0.006,0,0.013,0,0.019l0.411,64.004c0.005,0.706,0.381,1.357,0.99,1.714L208.475,344.97c0.312,0.183,0.661,0.273,1.01,0.273
	c0.341,0,0.681-0.087,0.987-0.261l71.612-40.307c0.626-0.354,1.016-1.015,1.019-1.734l0.285-64.198
	c0.003-0.717-0.378-1.381-0.999-1.74l-65.358-37.801l143.232-83.168c0.612-0.355,0.991-1.007,0.996-1.715l0.46-63.743
	c0-0.01,0-0.02,0-0.03C361.716,49.83,361.329,49.169,360.705,48.815z M276.027,5.433l79.664,45.14L304,80.443l-27.973-15.975V5.433z
	 M272.027,5.455v59.019L57.47,188.123L5.997,158.169L272.027,5.455z M4.022,161.648l49.452,28.777L4.389,218.713L4.022,161.648z
	 M207.49,339.76L6.395,222.174l51.065-29.429l150.126,87.36L207.49,339.76z M209.606,276.653l-148.15-86.211L274.032,67.935
	L299.99,82.76l-143.208,82.754c-0.618,0.357-0.999,1.017-0.999,1.731c0,0,0,0.001,0,0.001l0.026,64.03
	c0,0.712,0.379,1.37,0.995,1.728l64.157,37.288L209.606,276.653z M159.784,170.713l49.269,28.496l-49.244,28.594L159.784,170.713z
	 M211.49,339.82l0.096-59.69l13.393-7.502l52.096,30.278L211.49,339.82z M279.118,299.466l-50.086-29.11l50.34-28.2L279.118,299.466
	z M277.345,238.707l-52.33,29.315l-63.224-36.745l51.253-29.76L277.345,238.707z M213.04,196.894l-51.261-29.647l142.232-82.19
	l51.239,29.263L213.04,196.894z M357.283,110.874l-49.263-28.134l49.673-28.704L357.283,110.874z"/>
</svg>
