<?xml version="1.0" encoding="utf-8"?>
<!-- Generator: Adobe Illustrator 15.0.0, SVG Export Plug-In  -->
<!DOCTYPE svg PUBLIC "-//W3C//DTD SVG 1.1//EN" "http://www.w3.org/Graphics/SVG/1.1/DTD/svg11.dtd" [
	<!ENTITY ns_flows "http://ns.adobe.com/Flows/1.0/">
]>
<svg version="1.1"
	 xmlns="http://www.w3.org/2000/svg" xmlns:xlink="http://www.w3.org/1999/xlink" xmlns:a="http://ns.adobe.com/AdobeSVGViewerExtensions/3.0/"
	 x="0px" y="0px" width="484px" height="628px" viewBox="0 0 484 628" overflow="visible" enable-background="new 0 0 484 628"
	 xml:space="preserve">
<defs>
</defs>
<polygon fill="#111111" points="0,274.813 144,276.13 144,259.57 19,258.274 19,0 0,0 "/>
<rect x="186" y="1" fill="#111111" width="19" height="275"/>
<path fill="#111111" d="M198.929,588.851c-0.247-13.165-0.938-27.188-2.053-41.641c-0.503-14.683-4.643-27.86-12.321-39.192
	c-3.929-5.442-9.186-10.059-15.622-13.722l-0.095-0.048c-6.135-2.675-13.696-4.729-22.513-6.121
	c36.409-8.792,55.232-32.341,55.964-70.065c-0.252-26.234-8.756-45.039-25.286-55.897c-16.012-10.267-36.342-15.322-60.423-15.322
	c-0.572,0-1.149,0.158-1.716,0.158H0v275h19V497h95.865c12.159,0,22.236,1.322,29.941,3.645c7.784,2.434,13.93,5.88,18.32,10.146
	c4.713,3.991,8.391,8.932,10.911,14.563c2.19,5.722,3.551,12.051,4.045,18.782c1.111,13.478,1.486,27.266,1.115,40.99
	c0,6.624,0.572,12.972,1.695,18.836c0.498,2.991,1.135,5.857,1.881,8.474c0.755,3.148,1.649,6.22,2.656,8.735l0.251,0.829h21.358
	l-0.984-1.738C201.326,612.869,198.929,602.176,198.929,588.851z M183.491,419.181c-0.245,21.235-6.647,36.97-19.027,46.682
	C151.631,475.878,134.944,481,114.865,481H19V363h95.865c18.885,0,35.163,4.289,48.356,12.473
	C176.427,384.195,183.247,398.995,183.491,419.181z"/>
<path fill="#111111" d="M445.043,610.46c20.891-11.706,31.865-31.963,32.619-60.234c0-13.795-2.62-25.392-7.803-34.496
	c-5.415-8.806-12.686-16.015-21.618-21.428c-8.992-5.366-18.99-9.732-29.739-12.984c-11.154-3.099-22.853-5.679-34.77-7.667
	c-5.855-1.618-11.568-3.062-17.035-4.303c-5.772-0.979-11.391-2.227-16.738-3.721c-10.833-2.583-20.754-5.951-29.504-10.017
	c-8.755-3.895-15.714-9.435-20.725-16.522c-5.424-6.626-8.175-15.143-8.175-25.312c0-11.185,2.515-20.476,7.501-27.653
	c4.744-7.541,10.785-13.522,17.894-17.746c15.361-7.739,31.169-11.664,46.985-11.664c0.484,0,0.972,0.003,1.472,0.011
	c25.183,0,45.964,5.716,61.753,16.979c15.474,11.454,23.816,29.11,24.793,52.2l0.041,1.098h18.817l-0.062-1.197
	c-1.753-30.043-12.444-52.287-31.799-65.988c-19.372-12.994-44.115-19.617-73.543-19.617c-22.475,0-43.432,5.555-62.284,16.543
	c-19.65,11.336-29.867,30.517-30.366,57.044c0,12.962,2.883,23.821,8.55,32.256c5.157,8.309,12.366,15.263,21.458,20.693
	c8.866,4.869,18.925,8.854,29.894,11.845c5.353,1.495,11.018,2.942,16.798,4.291c5.349,1.495,11.009,3.005,16.899,4.505
	c12.042,2.111,23.77,4.432,34.839,6.892c10.578,2.581,20.43,6.135,29.268,10.555c8.656,4.513,15.701,10.382,20.922,17.418
	c4.959,7.139,7.473,16.555,7.473,27.987c0,11.46-2.4,21.208-7.117,28.948c-4.994,7.672-11.542,13.973-19.468,18.73
	c-7.849,4.78-16.23,8.258-24.915,10.336c-9.103,2.212-18.067,3.334-26.655,3.334c-27.18,0.226-50.648-6.101-69.806-18.87
	c-18.653-12.559-27.861-33.722-27.368-62.468L283.55,529h-18.834l0.015,1.234c0.502,34.777,11.953,60.219,34.037,75.399
	c21.72,14.856,49.291,22.444,81.949,22.444C403.185,628.078,424.832,622.185,445.043,610.46z"/>
<path fill="#111111" d="M244.916,276h20.264l34.974-88.271l10.67-27.23L356.468,276h19.667l42.828-114.719l9.994,26.495L463.74,276
	h20.072L375.127,1h-19.649L244.916,276z M365.91,256.527l-45.553-120.532l45.307-115.834l43.886,116.132L365.91,256.527z"/>
</svg>
