<?xml version="1.0" encoding="utf-8"?>
<!-- Generator: Adobe Illustrator 15.0.0, SVG Export Plug-In  -->
<!DOCTYPE svg PUBLIC "-//W3C//DTD SVG 1.1//EN" "http://www.w3.org/Graphics/SVG/1.1/DTD/svg11.dtd" [
	<!ENTITY ns_flows "http://ns.adobe.com/Flows/1.0/">
]>
<svg version="1.1"
	 xmlns="http://www.w3.org/2000/svg" xmlns:xlink="http://www.w3.org/1999/xlink" xmlns:a="http://ns.adobe.com/AdobeSVGViewerExtensions/3.0/"
	 x="0px" y="0px" width="491px" height="629px" viewBox="0 0 491 629" overflow="visible" enable-background="new 0 0 491 629"
	 xml:space="preserve">
<defs>
</defs>
<polygon fill="#111111" points="323,259 323,141 480,141 480,124 323,124 323,17 489,17 489,0 304,0 304,276 491,276 491,259 "/>
<path fill="#111111" d="M192.437,494.906c-8.991-5.365-18.989-9.731-29.739-12.984c-11.185-3.104-22.883-5.683-34.771-7.666
	c-5.827-1.609-11.54-3.053-17.035-4.303c-5.77-0.979-11.388-2.228-16.736-3.719c-10.821-2.58-20.742-5.948-29.504-10.02
	c-8.758-3.896-15.717-9.436-20.727-16.522c-5.423-6.624-8.173-15.14-8.173-25.31c0-11.186,2.515-20.477,7.501-27.655
	c4.742-7.54,10.782-13.522,17.895-17.746c15.361-7.74,31.167-11.664,46.978-11.664c0.486,0,0.976,0.003,1.478,0.011
	c25.181,0,45.962,5.716,61.753,16.979c15.474,11.456,23.816,28.809,24.795,51.898L196.19,427h18.816l-0.062-0.895
	c-1.752-30.039-12.444-52.132-31.8-65.837c-19.37-12.993-44.114-19.54-73.544-19.54c-22.474,0-43.43,5.593-62.283,16.581
	c-19.649,11.336-29.866,30.536-30.367,57.063c0,12.96,2.883,23.828,8.549,32.263c5.162,8.312,12.373,15.27,21.465,20.696
	c8.858,4.869,18.916,8.858,29.891,11.853c5.377,1.499,11.043,2.946,16.799,4.291c5.366,1.498,11.026,3.007,16.896,4.501
	c12.038,2.113,23.767,4.436,34.84,6.896c10.571,2.579,20.424,6.133,29.27,10.553c8.654,4.512,15.699,10.38,20.921,17.417
	c4.958,7.142,7.473,16.559,7.473,27.99c0,11.459-2.399,21.206-7.115,28.946c-4.996,7.675-11.545,13.977-19.47,18.732
	c-7.844,4.776-16.226,8.254-24.915,10.337c-9.097,2.21-18.062,3.331-26.654,3.331c-0.52,0.005-1.034,0.007-1.55,0.007
	c-26.502,0-49.468-6.352-68.255-18.875c-18.653-12.561-27.861-33.526-27.369-62.271L27.743,530H8.909l0.015,1.038
	c0.502,34.779,11.952,60.12,34.035,75.299c21.719,14.856,49.291,22.395,81.949,22.395c22.472,0,44.119-5.945,64.328-17.67
	c20.892-11.704,31.866-31.958,32.619-60.229c0-13.793-2.619-25.39-7.802-34.498C208.641,507.532,201.369,500.325,192.437,494.906z"
	/>
<path fill="#111111" d="M461.94,494.906c-8.989-5.365-18.987-9.731-29.738-12.984c-11.184-3.104-22.883-5.683-34.771-7.666
	c-5.836-1.611-11.549-3.055-17.034-4.303c-5.766-0.978-11.385-2.226-16.737-3.719c-10.824-2.581-20.745-5.949-29.505-10.02
	c-8.757-3.896-15.716-9.436-20.725-16.522c-5.425-6.623-8.175-15.139-8.175-25.31c0-11.186,2.516-20.477,7.501-27.655
	c4.743-7.541,10.784-13.522,17.896-17.746c15.359-7.74,31.165-11.664,46.977-11.664c0.486,0,0.976,0.003,1.478,0.011
	c25.18,0,45.961,5.716,61.753,16.979c15.475,11.457,23.817,28.811,24.794,51.898l0.04,0.795h18.819l-0.062-0.895
	c-1.753-30.041-12.445-52.133-31.801-65.837c-19.369-12.993-44.112-19.54-73.543-19.54c-22.474,0-43.431,5.593-62.284,16.581
	c-19.649,11.336-29.866,30.536-30.366,57.063c0,12.963,2.884,23.831,8.551,32.263c5.157,8.31,12.368,15.268,21.462,20.696
	c8.859,4.869,18.917,8.858,29.891,11.853c5.391,1.502,11.056,2.949,16.799,4.291c5.394,1.505,11.055,3.015,16.898,4.501
	c12.038,2.113,23.766,4.436,34.839,6.896c10.571,2.579,20.424,6.133,29.269,10.553c8.655,4.512,15.7,10.38,20.922,17.417
	c4.959,7.142,7.474,16.559,7.474,27.99c0,11.458-2.4,21.206-7.117,28.946c-4.996,7.676-11.544,13.977-19.467,18.732
	c-7.847,4.776-16.229,8.254-24.917,10.337c-9.097,2.21-18.062,3.331-26.654,3.331c-27.193,0.255-50.651-6.101-69.805-18.868
	c-18.654-12.561-27.862-33.527-27.369-62.271l0.018-1.041h-18.834l0.015,1.038c0.501,34.778,11.951,60.12,34.035,75.299
	c21.719,14.856,49.291,22.395,81.949,22.395c22.471,0,44.118-5.945,64.329-17.67c20.89-11.705,31.864-31.96,32.618-60.229
	c0-13.793-2.619-25.39-7.803-34.498C478.148,507.534,470.877,500.326,461.94,494.906z"/>
<polygon fill="#111111" points="114.676,189.461 25.833,0.574 25.562,0 0,0 0,275 19,275 19,24.034 105.379,209.228 73.274,276 
	92.294,276 114.547,229.169 136.427,276 155.439,276 123.979,209.279 212,24.005 212,275 231,275 231,0 205.182,0 "/>
</svg>
